<?xml version="1.0" encoding="UTF-8"?>
<svg id="Layer_2" data-name="Layer 2" xmlns="http://www.w3.org/2000/svg" viewBox="0 0 320.01172 48.47705">
  <defs>
    <style>
      .cls-1 {
        fill: #474747;
      }

      .cls-2 {
        fill: #ff2727;
      }
    </style>
  </defs>
  <g id="Layer_3" data-name="Layer 3">
    <g>
      <path class="cls-2" d="M45.50244,12.28809c1.05615,0,1.58398.4165,1.58398,1.24805,0,.76807-.25635,1.7124-.76807,2.83203l-3.31201,8.68799c-.28809.76807-.77637,1.61621-1.46387,2.54395-.68848.92871-1.51221,1.78418-2.47217,2.56836s-2.04004,1.43994-3.23975,1.96777c-1.2002.52783-2.47217.79199-3.81641.79199H7.43848c-.44873,0-.80859-.09619-1.08008-.28809-.27246-.19189-.4082-.55957-.4082-1.104,0-.51123.22363-1.40771.67236-2.68799L14.63818,7.87207c.28809-.76807.84033-1.61523,1.65625-2.54395.81592-.92773,1.75195-1.7832,2.80811-2.56787,1.05566-.78369,2.15967-1.43994,3.31201-1.96826,1.15186-.52783,2.22363-.79199,3.21582-.79199h25.96777c.25586,0,.38428.22461.38428.67236,0,.35254-.06445.76025-.19189,1.22363-.12842.46436-.22461.79199-.28809.98438-.22412.57568-.52051,1.18408-.88818,1.82373-.36816.64062-.77637,1.22412-1.22412,1.75195-.44824.52832-.91162.95996-1.3916,1.29639-.47998.33594-.95996.50391-1.43994.50391h-18.67236c-.64014,0-1.36035.16016-2.15967.47998-.80029.32031-1.44043.84814-1.92041,1.58398l-5.03955,13.05615c-.03271.03223-.04834.16016-.04834.38379,0,.25635.06396.47266.19189.64795.12793.17627.24023.26416.33643.26416h10.51172c.60742,0,1.30371-.16797,2.08789-.50391.78369-.33643,1.44775-.82373,1.99219-1.46436l.28809-.71973c.03125-.15967.05518-.27979.07178-.36035.01611-.0791.02393-.13574.02393-.16797,0-.22314-.04785-.41553-.14355-.57568-.09619-.15967-.24023-.24023-.43213-.24023h-3.98389c-.47998,0-.82471-.19922-1.03223-.6001-.2085-.39941-.31201-.8877-.31201-1.46387,0-.54346.06396-1.11133.19189-1.7041.12744-.5918.30371-1.15918.52832-1.70361.06348-.16016.16797-.3999.31201-.72021.14355-.31934.31934-.63965.52783-.95996.20752-.31934.42383-.6001.64795-.83984.22363-.24023.43213-.36035.62402-.36035h14.35205Z"/>
      <path class="cls-2" d="M65.03809,9.64844c.03174-.16016.05566-.27979.07227-.36035.01562-.07959.02393-.13574.02393-.16797,0-.57568-.17627-.86377-.52832-.86377h-7.67969c-.54443,0-.92041-.21631-1.12793-.64795-.2085-.43213-.31201-.96777-.31201-1.6084,0-.51123.03955-1.03174.11963-1.55957.07959-.52832.23193-1.06348.45605-1.6084.06396-.15967.17578-.39941.33594-.71973.16016-.31982.33643-.63135.52832-.93604.19189-.30371.40771-.57617.64795-.81592.23975-.24023.45605-.36035.64795-.36035h31.104c.25586,0,.38379.22461.38379.67236,0,.35254-.06445.76025-.19189,1.22363-.12842.46436-.22412.79199-.28809.98438-.22412.57568-.52051,1.18408-.8877,1.82373-.36816.64062-.77637,1.22412-1.22412,1.75195-.44873.52832-.91211.95996-1.39209,1.29639-.47998.33594-.95996.50391-1.43994.50391h-7.68018c-.19189,0-.44824.14404-.76807.43164-.31982.28809-.56006.6084-.71973.96045l-7.34424,19.19971c-.54443,1.37646-1.11182,2.3999-1.70361,3.07227-.59277.67188-1.35254,1.00781-2.28027,1.00781h-5.27979c-1.02441,0-1.53613-.44775-1.53613-1.34424,0-.35156.06396-.75146.19189-1.19971.12744-.44775.30371-.95996.52832-1.53613l7.34375-19.19971Z"/>
      <path class="cls-2" d="M118.41357,25.05615c-.28809.76807-.83984,1.61621-1.65576,2.54395-.81592.92871-1.75195,1.78418-2.80811,2.56836s-2.16016,1.43994-3.31201,1.96777-2.22461.79199-3.21582.79199h-19.44043c-1.21631,0-2.19189-.30371-2.92773-.91211-.73633-.60742-1.104-1.42334-1.104-2.44775,0-.70361.11182-1.26367.33594-1.68018.06396-.15967.18359-.41553.35986-.76807.17578-.35156.38428-.71143.62402-1.08008.24023-.36719.48779-.6875.74414-.95996.25586-.27148.49561-.40771.72021-.40771h18.62402c.63965,0,1.37549-.16797,2.20752-.50391.83203-.33643,1.42383-.88818,1.77637-1.65625.19189-.47998.28809-.86377.28809-1.15186,0-.47998-.30469-.72021-.91211-.72021h-15.07227c-.47998,0-.82422-.19922-1.03174-.6001-.2085-.39941-.31201-.8877-.31201-1.46387,0-.54346.06348-1.11133.19189-1.7041.12744-.5918.30371-1.15918.52783-1.70361.06396-.16016.16797-.3999.31201-.72021.14404-.31934.31982-.63965.52832-.95996.20752-.31934.42383-.6001.64795-.83984.22363-.24023.43213-.36035.62402-.36035h17.23193c.31934,0,.61572-.16797.88818-.50391.27148-.33594.47168-.63135.59961-.88818.09619-.25537.19238-.55176.28809-.8877.09619-.33594.14404-.63135.14404-.88818,0-.57568-.23975-.86377-.72021-.86377h-18.91162c-.54443,0-.92041-.21631-1.12793-.64795-.2085-.43213-.31201-.96777-.31201-1.6084,0-1.15186.20752-2.19141.62402-3.11963.06348-.15967.16797-.3999.31201-.72021.14355-.31934.31934-.63965.52783-.95996.20752-.31934.42383-.6001.64795-.83984.22363-.24023.43213-.36035.62402-.36035h27.83984c.89551,0,1.55176.29639,1.96826.88818.41553.59277.62402,1.31982.62402,2.18408,0,.86377-.19238,1.77588-.57617,2.73584l-7.39209,19.24805Z"/>
      <path class="cls-2" d="M130.05322,31.84814c-.52783.65625-1.22363,1.01611-2.08789,1.08008h-5.56787c-1.02441,0-1.53613-.44775-1.53613-1.34424,0-.35156.06396-.75146.19189-1.19971.12744-.44775.30371-.95996.52832-1.53613l8.83203-23.04004c.2876-.70361.65527-1.40771,1.104-2.11182.44775-.70361.95996-1.32764,1.53564-1.87207.57617-.54395,1.18359-.98389,1.82422-1.31982.63965-.33594,1.2959-.50439,1.96777-.50439h26.59229c.25537,0,.38379.22461.38379.67236,0,.35254-.06445.76025-.19189,1.22363-.12842.46436-.22412.79199-.28809.98438-.22412.57568-.52051,1.18408-.88818,1.82373-.36816.64062-.77588,1.22412-1.22363,1.75195-.44873.52832-.91211.95996-1.39209,1.29639-.47998.33594-.95996.50391-1.43994.50391h-17.66406c-.28809,0-.55225.08838-.79199.26367-.24023.17627-.45605.40088-.64795.67236-.19189.27197-.35986.56006-.50391.86377-.14404.30469-.26416.58447-.36035.83984-.03223.16064-.05615.28809-.07178.38428-.0166.09619-.02393.17627-.02393.23975,0,.19238.03955.36865.11963.52832.07959.16016.21631.23975.4082.23975h15.98389c.25586,0,.38428.22461.38428.67236,0,.35205-.04834.76025-.14404,1.22363-.09619.46436-.17627.79199-.24023.98438-.22412.57568-.52051,1.18408-.8877,1.82373-.36865.64062-.77637,1.23242-1.22412,1.77588-.44873.54443-.92041.99219-1.41602,1.34424-.49658.35254-.96826.52783-1.41602.52783h-13.82422c-.44824,0-.79199.09619-1.03174.28809-.24023.19189-.48828.51221-.74414.95996l-2.64014,6.95996c-.54443,1.34424-1.07959,2.34473-1.60791,3Z"/>
      <path class="cls-2" d="M194.39648,25.05615c-.28809.76807-.83984,1.61621-1.65576,2.54395-.81641.92871-1.75244,1.78418-2.80811,2.56836-1.05615.78418-2.16016,1.43994-3.31201,1.96777s-2.22461.79199-3.21631.79199h-19.00781c-.83252,0-1.56836-.17529-2.20801-.52783-.64062-.35205-1.19238-.81641-1.65576-1.39209-.46436-.57617-.81641-1.21582-1.05615-1.91992-.24023-.70361-.35986-1.42383-.35986-2.16016,0-.83154.11133-1.45557.33594-1.87207l6.57568-17.18408c.28809-.76807.84033-1.61523,1.65625-2.54395.81592-.92773,1.75195-1.7832,2.80811-2.56787,1.05566-.78369,2.15967-1.43994,3.31201-1.96826,1.15186-.52783,2.22363-.79199,3.21582-.79199h19.00781c.7998,0,1.52783.17627,2.18408.52832.65576.35254,1.21582.81592,1.68018,1.39209.46338.57568.81592,1.22363,1.05615,1.94385.23975.71973.35986,1.43262.35986,2.13574,0,.83252-.11279,1.45654-.33594,1.87207l-6.57617,17.18408ZM179.27637,8.25635c-.64014,0-1.36768.17627-2.18408.52783-.81592.35254-1.48047.89648-1.9917,1.63184l-4.65625,12.09619v.19189c0,.67236.26416,1.16846.79199,1.48828.52832.32031,1.11182.47998,1.75195.47998h8.3042c.63965,0,1.34424-.18408,2.11182-.55225.76807-.36719,1.39209-.90381,1.87207-1.60791l4.65625-12.09619v-.19189c0-.67188-.26416-1.16748-.79199-1.48779-.52832-.31982-1.1123-.47998-1.75195-.47998h-8.1123Z"/>
      <path class="cls-2" d="M241.29199.88818c.41553.59277.62402,1.31982.62402,2.18408,0,.86377-.19238,1.77588-.57617,2.73584l-3.74414,9.79199c-.28809.73682-.79199,1.52051-1.51172,2.35205-.72021.83252-1.54443,1.62451-2.47217,2.37598-.92871.75244-1.91992,1.40869-2.97607,1.96826-1.05615.56006-2.08057.91992-3.07178,1.08008,1.02344,1.63184,2.07129,3.16016,3.14404,4.58398,1.07129,1.42383,2.11914,2.90381,3.14355,4.43994l-.04785.19189c-.12842.22412-.23975.33594-.33594.33594h-6.76807c-1.18408,0-2.24854-.37598-3.19189-1.12793-.94434-.75146-1.82422-1.64795-2.64014-2.68799-.81592-1.03955-1.59229-2.08789-2.32812-3.14404-.73633-1.05615-1.48779-1.8877-2.25586-2.49609h-5.37598c-.83252.09619-1.56836.95996-2.20801,2.59229l-1.05615,2.78369c-.54443,1.37646-1.11182,2.3999-1.70361,3.07227-.59277.67188-1.35254,1.00781-2.28027,1.00781h-5.27979c-1.02441,0-1.53613-.44775-1.53613-1.34424,0-.35156.06396-.75146.19189-1.19971.12744-.44775.30371-.95996.52832-1.53613l9.50391-24.76807c.54346-1.47119,1.104-2.52002,1.67969-3.14404.57617-.62402,1.32764-.93604,2.25635-.93604h28.31982c.89551,0,1.55176.29639,1.96826.88818ZM213.35596,14.49609c0,.51221.14404.76807.43164.76807h10.84814c.63965,0,1.31982-.18359,2.04004-.55176.72021-.36768,1.33594-.91992,1.84814-1.65625l.86377-2.20801c.09619-.25586.19189-.55176.28809-.8877.09619-.33643.14404-.63184.14404-.88818,0-.54395-.24023-.81592-.72021-.81592h-12.62402c-.35254.03223-.67188.24805-.95996.64795-.28809.40039-.56006.8877-.81592,1.46387l-1.104,2.92822c-.16064.64014-.23975,1.04004-.23975,1.19971Z"/>
      <path class="cls-2" d="M241.29199,25.05615l7.39209-19.24805c.2876-.70361.65527-1.40771,1.104-2.11182.44775-.70361.95996-1.32764,1.53564-1.87207.57617-.54395,1.18359-.98389,1.82422-1.31982.63965-.33594,1.2959-.50439,1.96777-.50439h27.84033c.25488,0,.38379.22461.38379.67236,0,.35254-.06445.76025-.19141,1.22363-.12891.46436-.22461.79199-.28906.98438-.22363.57568-.51953,1.18408-.8877,1.82373-.36816.64062-.77637,1.22412-1.22363,1.75195-.44922.52832-.91211.95996-1.39258,1.29639-.47949.33594-.95898.50391-1.43945.50391h-18.91211c-.28809,0-.54443.08838-.76807.26367-.22412.17627-.43213.39258-.62402.64844-.19189.25635-.35254.53613-.47998.83984-.12842.3042-.23975.58398-.33594.83984l-4.51221,11.66406v.19189c0,.67236.26416,1.16846.79199,1.48828.52832.32031,1.11182.47998,1.75195.47998h18.43213c.25586,0,.38477.27197.38477.81592,0,.41602-.05664.87207-.16797,1.36816-.11328.49609-.20117.83984-.26465,1.03174-.28809.73633-.69629,1.41602-1.22412,2.04004s-1.13623,1.16016-1.82373,1.60791c-.68848.44873-1.41602.79199-2.18408,1.03223-.76807.23975-1.53613.35986-2.3042.35986h-19.43994c-.83252,0-1.56836-.17529-2.20801-.52783-.64062-.35205-1.19238-.81641-1.65576-1.39209-.46436-.57617-.81641-1.21582-1.05615-1.91992-.24023-.70361-.35986-1.42383-.35986-2.16016,0-.83154.11133-1.45557.33594-1.87207Z"/>
      <path class="cls-2" d="M312.04297,25.05615c-.28711.76807-.83984,1.61621-1.65527,2.54395-.81543.92871-1.75195,1.78418-2.80762,2.56836-1.05664.78418-2.16016,1.43994-3.3125,1.96777s-2.22461.79199-3.21582.79199h-19.44043c-1.2168,0-2.19141-.30371-2.92773-.91211-.73633-.60742-1.10352-1.42334-1.10352-2.44775,0-.70361.11133-1.26367.33594-1.68018.06348-.15967.18359-.41553.35938-.76807.17578-.35156.38477-.71143.62402-1.08008.24023-.36719.4873-.6875.74414-.95996.25586-.27148.49512-.40771.71973-.40771h18.625c.63867,0,1.375-.16797,2.20703-.50391.83203-.33643,1.42383-.88818,1.77637-1.65625.19238-.47998.28809-.86377.28809-1.15186,0-.47998-.30469-.72021-.91211-.72021h-15.07227c-.48047,0-.82422-.19922-1.03125-.6001-.20898-.39941-.3125-.8877-.3125-1.46387,0-.54346.06348-1.11133.19141-1.7041.12793-.5918.30469-1.15918.52832-1.70361.06348-.16016.16797-.3999.31152-.72021.14453-.31934.32031-.63965.5293-.95996.20703-.31934.42383-.6001.64746-.83984.22363-.24023.43262-.36035.62402-.36035h17.23242c.31836,0,.61523-.16797.8877-.50391.27148-.33594.47168-.63135.59961-.88818.09668-.25537.19238-.55176.28809-.8877s.14453-.63135.14453-.88818c0-.57568-.24023-.86377-.7207-.86377h-18.91211c-.54395,0-.91992-.21631-1.12695-.64795-.20898-.43213-.3125-.96777-.3125-1.6084,0-1.15186.20703-2.19141.62402-3.11963.06348-.15967.16797-.3999.31152-.72021.14453-.31934.32031-.63965.52832-.95996.20801-.31934.42383-.6001.64746-.83984.22461-.24023.43262-.36035.625-.36035h27.83984c.89453,0,1.55078.29639,1.96777.88818.41504.59277.62402,1.31982.62402,2.18408,0,.86377-.19238,1.77588-.57617,2.73584l-7.39258,19.24805Z"/>
    </g>
    <g>
      <path class="cls-1" d="M10.5332,46.71191c-.08789.22363-.19971.43994-.33594.64893-.13623.20947-.2915.39648-.4668.56201-.1748.16553-.35986.29883-.5542.40088-.19482.10205-.39404.15332-.59814.15332H.1167c-.07812,0-.1167-.06787-.1167-.2041,0-.10693.01904-.23096.05811-.37207.03857-.14111.06787-.24072.0874-.29932.06787-.1748.1582-.35938.27002-.5542.11182-.19434.23584-.37207.37207-.53271.13623-.16016.27734-.2915.42285-.39355.146-.10205.29199-.15332.43799-.15332h5.74805c.1748,0,.31592-.08496.42285-.25537.10693-.16992.18994-.33301.24805-.48877.00977-.00928.01465-.04346.01465-.10205,0-.10693-.07275-.19678-.21875-.27002-.146-.07275-.35986-.10938-.64209-.10938h-3.54492c-.25293,0-.47656-.05566-.67139-.16748-.19434-.11182-.3623-.25537-.50293-.43066-.14111-.1748-.24805-.37207-.32129-.59082-.07275-.21875-.10938-.43994-.10938-.66357,0-.25293.03418-.44238.10205-.56934l.80273-2.08594c.0874-.21387.19922-.42773.33545-.64209.13623-.21387.2915-.40332.4668-.56885.17529-.16504.35986-.29883.5542-.40137.19482-.10205.39404-.15283.59814-.15283h8.46191c.07764,0,.1167.06787.1167.2041,0,.10693-.01953.23096-.05859.37207s-.06787.24072-.0874.29883c-.06836.17529-.1582.35986-.27002.55469-.11182.19434-.23584.37207-.37207.53223-.13623.16064-.27686.29199-.42285.39404s-.29199.15332-.43799.15332h-5.74805c-.1748,0-.31348.08496-.41553.25537-.10205.16992-.18262.33301-.24072.48828-.00977.01025-.01465.03906-.01465.08789,0,.10693.07031.19922.21143.27686.14111.07812.35254.1167.63477.1167h3.55957c.24316,0,.46191.05615.65674.16797.19434.11182.3623.25537.50342.43018.14062.17529.24756.37451.3208.59814.07275.22412.10938.44287.10938.65674,0,.25293-.03418.44287-.10205.56885l-.80225,2.08643Z"/>
      <path class="cls-1" d="M17.11963,41.29199c.00488-.02393.00732-.04102.00732-.05127,0-.1748-.05371-.26221-.16064-.26221h-1.95459c-.16553,0-.27979-.06592-.34277-.19727-.06348-.13135-.09521-.29395-.09521-.48877,0-.3501.06348-.66602.18994-.94824.01953-.04834.05078-.12109.09473-.21875.04395-.09717.09717-.19434.16064-.2915.06299-.09717.12891-.18262.19678-.25537.06787-.07324.13135-.10938.18994-.10938h8.69482c.07764,0,.1167.06787.1167.2041,0,.10693-.01953.23096-.05859.37207-.03857.14111-.06787.24072-.0874.29883-.06787.17529-.1582.35986-.27002.55469-.11182.19434-.23584.37207-.37207.53223-.13623.16064-.27686.29199-.42285.39404s-.29199.15332-.4375.15332h-1.95508c-.05859,0-.13623.04346-.2334.13135-.09717.0874-.17041.18457-.21875.2915l-1.59033,4.14355c-.00977.04834-.01709.08496-.02197.10938s-.00732.0415-.00732.05078c0,.17529.05371.2627.16064.2627h1.95508c.16504,0,.2793.06543.34277.19678.06299.13135.09473.29443.09473.48877,0,.3501-.06348.6665-.18945.94824-.02002.04883-.05127.12207-.09521.21875-.04346.09766-.09717.19482-.16016.29199-.06348.09717-.12939.18262-.19727.25537s-.13135.10938-.18945.10938h-8.69482c-.07812,0-.1167-.06787-.1167-.2041,0-.10693.01904-.23096.05811-.37207.03857-.14111.06787-.24072.0874-.29932.06787-.1748.1582-.35938.27002-.5542.11182-.19434.23584-.37207.37207-.53271.13623-.16016.27734-.2915.42285-.39355.146-.10205.29199-.15332.43799-.15332h1.95459c.04883,0,.12158-.03662.21924-.10938.09668-.07324.16992-.1582.21875-.25537l1.60449-4.20166c.00977-.04834.01709-.08496.02197-.10938Z"/>
      <path class="cls-1" d="M24.99756,48.1709c-.18018.2041-.41113.30615-.69287.30615h-1.60498c-.31152,0-.4668-.13623-.4668-.40869,0-.10693.01953-.22803.05811-.36475.03906-.13574.09277-.2915.16064-.4668l2.88867-7.52783c.16504-.41797.33545-.72949.51074-.93359.1748-.2041.40332-.30615.68555-.30615h5.51465c.2627,0,.46191.05566.59814.16748s.27197.26025.4082.44531c.28223-.18506.53271-.3335.75146-.44531s.45459-.16748.70752-.16748h3.86621c.24316,0,.46436.05322.66357.16016.19922.10742.36963.24805.51074.42334.14111.1748.24805.37207.3208.59082.07324.21875.10986.43555.10986.64893,0,.25342-.03418.44287-.10254.56934l-2.43604,6.375c-.17529.44775-.3501.76611-.52539.95557-.1748.18994-.40381.28467-.68555.28467h-1.60498c-.31104,0-.4668-.12646-.4668-.37939,0-.2334.07764-.52002.2334-.86084l2.14453-5.60205v-.05811c0-.20459-.08008-.35498-.24072-.45264-.16016-.09668-.33789-.14551-.53223-.14551h-.91943c-.19434,0-.4082.05615-.6416.16748-.2334.11182-.42334.2749-.56885.48877l-2.14453,5.60205c-.17529.44775-.35059.76611-.52539.95557-.17529.18994-.40381.28467-.68555.28467h-1.60498c-.3208,0-.48145-.12646-.48145-.37939,0-.2334.07764-.52002.2334-.86084l2.14453-5.60205v-.05811c0-.20459-.08252-.35498-.24805-.45264-.16553-.09668-.34521-.14551-.53955-.14551h-1.59033c-.07812,0-.16309.0459-.25537.13867-.09229.09229-.1582.18701-.19678.28418l-2.23193,5.83545c-.16553.41846-.33838.72949-.51807.93408Z"/>
      <path class="cls-1" d="M56.75,38.73877c.12646.18018.18945.40137.18945.66406s-.05811.53955-.1748.83154l-1.13818,2.97607c-.0874.22363-.24072.46191-.45947.71484s-.46924.49365-.75098.72217c-.28223.22852-.58398.42822-.90479.59814-.3208.17041-.63232.27979-.93359.32812.31104.49609.62939.96094.95557,1.39355.32568.43262.64404.88232.95557,1.34912l-.01465.05859c-.03906.06787-.07275.10205-.10205.10205h-2.05713c-.35986,0-.68311-.11426-.97021-.34277s-.5542-.50098-.80225-.81689-.48389-.63477-.70752-.95557c-.22412-.32129-.45215-.57373-.68555-.75879h-1.63428c-.25293.0293-.47656.29199-.6709.7876l-.3208.84619c-.16553.41846-.33838.72949-.51807.93408-.18018.2041-.41113.30615-.69287.30615h-1.60498c-.31152,0-.4668-.13623-.4668-.40869,0-.10693.01953-.22803.05811-.36475.03906-.13574.09277-.2915.16064-.4668l2.88867-7.52783c.16504-.44727.33545-.76562.51074-.95557.1748-.18945.40332-.28418.68555-.28418h8.60742c.27197,0,.47168.08984.59814.26953ZM48.25928,42.875c0,.15576.04395.2334.13135.2334h3.29688c.19482,0,.40137-.05615.62012-.16797.21875-.11133.40625-.2793.56152-.50342l.2627-.6709c.0293-.07764.05859-.16797.08789-.27002.02881-.10205.04346-.19189.04346-.26953,0-.16553-.07275-.24805-.21875-.24805h-3.83691c-.10693.00977-.2041.0752-.2915.19678-.08789.12158-.17041.27002-.24805.44482l-.33594.89014c-.04883.19482-.07275.31592-.07275.36475Z"/>
      <path class="cls-1" d="M64.29248,46.17188c.05859-.15527.08789-.27686.08789-.36475,0-.13574-.09277-.2041-.27734-.2041h-3.70557c-.13623,0-.24316.0293-.3208.0874-.07812.05859-.15088.15576-.21924.29199l-.48096,1.25439c-.17529.44775-.35059.76611-.52539.95557-.17529.18994-.40381.28467-.68555.28467h-1.60498c-.3208,0-.48145-.12646-.48145-.37939,0-.2334.07764-.52002.2334-.86084l2.43652-6.375c.0874-.2334.25537-.49121.50342-.77344.24756-.28174.53223-.54199.85303-.78027.32129-.23828.65674-.43799,1.00684-.59814.3501-.16064.67578-.24072.97754-.24072h5.77734c.24268,0,.46436.05322.66357.16016.19922.10742.36963.24805.51074.42334.14062.1748.24805.37207.3208.59082s.10938.43555.10938.64893c0,.25342-.03418.44287-.10205.56934l-2.43652,6.375c-.1748.44775-.3501.76611-.5249.95557-.17529.18994-.40381.28467-.68604.28467h-1.60449c-.31152,0-.4668-.12646-.4668-.37939,0-.2334.07764-.52002.2334-.86084l.4082-1.06494ZM65.42334,42.9624c.07275-.06787.13379-.14062.18213-.21875l.42334-1.10889v-.05811c0-.20459-.08008-.35498-.24072-.45264-.16064-.09668-.33789-.14551-.53271-.14551h-2.52393c-.19434,0-.4082.05615-.6416.16748-.2334.11182-.42334.2749-.56885.48877l-.45264,1.16699c0,.06836.00977.12939.0293.18262.01953.05371.06299.08008.13135.08008h3.96826c.07764,0,.15332-.03369.22607-.10205Z"/>
      <path class="cls-1" d="M68.771,46.08447l2.24707-5.8501c.0874-.21387.19922-.42773.33545-.64209.13623-.21387.2915-.40332.4668-.56885.17529-.16504.35986-.29883.5542-.40137.19482-.10205.39404-.15283.59814-.15283h8.46191c.07764,0,.1167.06787.1167.2041,0,.10693-.01953.23096-.05859.37207s-.06787.24072-.0874.29883c-.06836.17529-.1582.35986-.27002.55469-.11182.19434-.23584.37207-.37207.53223-.13623.16064-.27686.29199-.42285.39404s-.29199.15332-.43799.15332h-5.74805c-.0874,0-.16504.02686-.2334.08008-.06787.05371-.13086.11914-.18945.19678-.05859.07812-.10693.16309-.146.25537-.03906.09277-.07275.17773-.10205.25537l-1.37109,3.54492v.05859c0,.2041.08008.35498.24072.45215.16016.09766.3374.146.53223.146h5.60205c.07764,0,.1167.08252.1167.24805,0,.12646-.01709.26514-.05078.41553-.03418.15088-.06104.25537-.08057.31396-.0874.22363-.21143.43018-.37207.62012-.16016.18945-.34521.35254-.5542.48877s-.43018.24072-.66357.31348-.4668.10938-.7002.10938h-5.90869c-.25293,0-.47656-.05322-.6709-.16064-.19482-.10693-.36279-.24805-.50342-.42285-.14111-.17529-.24805-.36963-.32129-.5835-.07275-.21387-.10938-.43262-.10938-.65674,0-.25244.03418-.44238.10205-.56885Z"/>
      <path class="cls-1" d="M85.16162,41.29199c.00488-.02393.00732-.04102.00732-.05127,0-.1748-.05371-.26221-.16064-.26221h-1.95459c-.16553,0-.27979-.06592-.34277-.19727-.06348-.13135-.09521-.29395-.09521-.48877,0-.3501.06348-.66602.18994-.94824.01953-.04834.05078-.12109.09473-.21875.04395-.09717.09717-.19434.16064-.2915.06299-.09717.12891-.18262.19678-.25537.06787-.07324.13135-.10938.18994-.10938h8.69482c.07764,0,.1167.06787.1167.2041,0,.10693-.01953.23096-.05859.37207-.03857.14111-.06787.24072-.0874.29883-.06787.17529-.1582.35986-.27002.55469-.11182.19434-.23584.37207-.37207.53223-.13623.16064-.27686.29199-.42285.39404s-.29199.15332-.4375.15332h-1.95508c-.05859,0-.13623.04346-.2334.13135-.09717.0874-.17041.18457-.21875.2915l-1.59033,4.14355c-.00977.04834-.01709.08496-.02197.10938s-.00732.0415-.00732.05078c0,.17529.05371.2627.16064.2627h1.95508c.16504,0,.2793.06543.34277.19678.06299.13135.09473.29443.09473.48877,0,.3501-.06348.6665-.18945.94824-.02002.04883-.05127.12207-.09521.21875-.04346.09766-.09717.19482-.16016.29199-.06348.09717-.12939.18262-.19727.25537s-.13135.10938-.18945.10938h-8.69482c-.07812,0-.1167-.06787-.1167-.2041,0-.10693.01904-.23096.05811-.37207.03857-.14111.06787-.24072.0874-.29932.06787-.1748.1582-.35938.27002-.5542.11182-.19434.23584-.37207.37207-.53271.13623-.16016.27734-.2915.42285-.39355.146-.10205.29199-.15332.43799-.15332h1.95459c.04883,0,.12158-.03662.21924-.10938.09668-.07324.16992-.1582.21875-.25537l1.60449-4.20166c.00977-.04834.01709-.08496.02197-.10938Z"/>
      <path class="cls-1" d="M93.03955,48.1709c-.18018.2041-.41113.30615-.69287.30615h-1.60498c-.31152,0-.4668-.13623-.4668-.40869,0-.10693.01953-.22803.05811-.36475.03906-.13574.09277-.2915.16064-.4668l2.88867-7.52783c.16504-.41797.33545-.72949.51074-.93359.1748-.2041.40332-.30615.68555-.30615h7.46973c.24268,0,.46436.05322.66357.16016.19922.10742.36963.24805.51074.42334.14062.1748.24805.37207.3208.59082s.10938.43555.10938.64893c0,.25342-.03418.44287-.10205.56934l-2.43652,6.375c-.16553.41846-.33789.72949-.51758.93408-.18018.2041-.41113.30615-.69336.30615h-1.5752c-.31152,0-.4668-.13623-.4668-.40869,0-.10693.01904-.22803.05811-.36475.03857-.13574.09229-.2915.16064-.4668l2.14453-5.60205v-.05811c0-.20459-.08057-.35498-.24072-.45264-.16064-.09668-.33838-.14551-.53271-.14551h-3.20947c-.07812,0-.16309.0459-.25537.13867-.09229.09229-.1582.18701-.19678.28418l-2.23193,5.83545c-.16553.41846-.33838.72949-.51807.93408Z"/>
      <path class="cls-1" d="M114.33154,42.20361c.32129,0,.48145.12695.48145.37939,0,.2334-.07764.52051-.2334.86084l-1.00635,2.64062c-.08789.2334-.23584.49121-.44531.77344-.20898.28174-.45947.54199-.75098.78027-.29199.23828-.62012.4375-.98486.59814s-.75146.24072-1.15967.24072h-7.46973c-.13623,0-.24561-.0293-.32812-.0874-.08301-.05859-.12402-.17041-.12402-.33545,0-.15576.06787-.42822.2041-.81738l2.43652-6.375c.0874-.2334.25537-.49121.50342-.77344.24756-.28174.53223-.54199.85303-.78027.32129-.23828.65674-.43799,1.00684-.59814.3501-.16064.67578-.24072.97754-.24072h7.89258c.07764,0,.1167.06787.1167.2041,0,.10693-.01953.23096-.05859.37207-.03857.14111-.06787.24072-.0874.29883-.06787.17529-.1582.35986-.27002.55469-.11182.19434-.23584.37207-.37207.53223-.13623.16064-.27686.29199-.42285.39404s-.29199.15332-.4375.15332h-5.67529c-.19482,0-.41357.04883-.65625.14551-.24365.09766-.43799.25781-.58398.48145l-1.53174,3.96826c-.00977.00977-.01465.04883-.01465.1167,0,.07812.01953.14355.05859.19727.03857.05322.07275.08008.10205.08008h3.19482c.18457,0,.39648-.05127.63477-.15332s.43994-.25.60547-.44482l.0874-.21875c.00977-.04883.01709-.08496.02197-.10938s.00732-.0415.00732-.05127c0-.06787-.01465-.12598-.04395-.1748-.02881-.04883-.07275-.07324-.13135-.07324h-1.21045c-.146,0-.25049-.06055-.31396-.18213s-.09473-.27002-.09473-.44531c0-.16504.01953-.3374.05859-.51758.03857-.18018.09229-.35254.16016-.51807.01953-.04834.05127-.12158.09473-.21875.04395-.09717.09717-.19434.16064-.29199.06299-.09668.12891-.18213.19678-.25488.06836-.07324.13135-.10986.18994-.10986h4.36182Z"/>
      <path class="cls-1" d="M119.5835,46.08447l2.24707-5.8501c.0874-.21387.19922-.42773.33545-.64209.13623-.21387.2915-.40332.4668-.56885.17529-.16504.35986-.29883.5542-.40137.19482-.10205.39404-.15283.59814-.15283h8.46191c.07764,0,.1167.06787.1167.2041,0,.10693-.01953.23096-.05859.37207s-.06787.24072-.0874.29883c-.06836.17529-.1582.35986-.27002.55469-.11182.19434-.23584.37207-.37207.53223-.13623.16064-.27686.29199-.42285.39404s-.29199.15332-.43799.15332h-5.74805c-.0874,0-.16504.02686-.2334.08008-.06787.05371-.13086.11914-.18945.19678-.05859.07812-.10693.16309-.146.25537-.03906.09277-.07275.17773-.10205.25537l-1.37109,3.54492v.05859c0,.2041.08008.35498.24072.45215.16016.09766.3374.146.53223.146h5.60205c.07764,0,.1167.08252.1167.24805,0,.12646-.01709.26514-.05078.41553-.03418.15088-.06104.25537-.08057.31396-.0874.22363-.21143.43018-.37207.62012-.16016.18945-.34521.35254-.5542.48877s-.43018.24072-.66357.31348-.4668.10938-.7002.10938h-5.90869c-.25293,0-.47656-.05322-.6709-.16064-.19482-.10693-.36279-.24805-.50342-.42285-.14111-.17529-.24805-.36963-.32129-.5835-.07275-.21387-.10938-.43262-.10938-.65674,0-.25244.03418-.44238.10205-.56885Z"/>
      <path class="cls-1" d="M141.65674,46.08447c-.08789.2334-.25537.49121-.50342.77344-.24805.28174-.53271.54199-.85352.78027s-.65625.4375-1.00684.59814c-.3501.16064-.67578.24072-.97705.24072h-5.77734c-.25293,0-.47656-.05322-.6709-.16064-.19482-.10693-.36279-.24805-.50342-.42285-.14111-.17529-.24805-.36963-.32129-.5835-.07275-.21387-.10938-.43262-.10938-.65674,0-.25244.03418-.44238.10205-.56885l1.99902-5.22266c.0874-.2334.25537-.49121.50342-.77344.24756-.28174.53223-.54199.85303-.78027.32129-.23828.65674-.43799,1.00684-.59814.3501-.16064.67578-.24072.97754-.24072h5.77734c.24268,0,.46436.05322.66357.16016.19922.10742.36963.24805.51074.42334.14062.1748.24805.37207.3208.59082s.10938.43555.10938.64893c0,.25342-.03418.44287-.10205.56934l-1.99854,5.22266ZM137.06104,40.97852c-.19482,0-.41553.05322-.66357.16016-.24805.10742-.4502.27246-.60547.49609l-1.41504,3.67627v.05859c0,.2041.08008.35498.24072.45215.16016.09766.3374.146.53223.146h2.52393c.19434,0,.40869-.05566.64209-.16797.2334-.11133.42285-.27441.56885-.48877l1.41504-3.67627v-.05811c0-.20459-.08008-.35498-.24072-.45264-.16064-.09668-.33789-.14551-.53223-.14551h-2.46582Z"/>
      <path class="cls-1" d="M145.16504,48.1709c-.18018.2041-.41113.30615-.69287.30615h-1.60498c-.31152,0-.4668-.13623-.4668-.40869,0-.10693.01953-.22803.05811-.36475.03906-.13574.09277-.2915.16064-.4668l2.88867-7.52783c.16504-.41797.33545-.72949.51074-.93359.1748-.2041.40332-.30615.68555-.30615h5.51465c.2627,0,.46191.05566.59814.16748s.27197.26025.4082.44531c.28223-.18506.53271-.3335.75146-.44531s.45459-.16748.70752-.16748h3.86621c.24316,0,.46436.05322.66357.16016.19922.10742.36963.24805.51074.42334.14111.1748.24805.37207.3208.59082.07324.21875.10986.43555.10986.64893,0,.25342-.03418.44287-.10254.56934l-2.43604,6.375c-.17529.44775-.3501.76611-.52539.95557-.1748.18994-.40381.28467-.68555.28467h-1.60498c-.31104,0-.4668-.12646-.4668-.37939,0-.2334.07764-.52002.2334-.86084l2.14453-5.60205v-.05811c0-.20459-.08008-.35498-.24072-.45264-.16016-.09668-.33789-.14551-.53223-.14551h-.91943c-.19434,0-.4082.05615-.6416.16748-.2334.11182-.42334.2749-.56885.48877l-2.14453,5.60205c-.17529.44775-.35059.76611-.52539.95557-.17529.18994-.40381.28467-.68555.28467h-1.60498c-.3208,0-.48145-.12646-.48145-.37939,0-.2334.07764-.52002.2334-.86084l2.14453-5.60205v-.05811c0-.20459-.08252-.35498-.24805-.45264-.16553-.09668-.34521-.14551-.53955-.14551h-1.59033c-.07812,0-.16309.0459-.25537.13867-.09229.09229-.1582.18701-.19678.28418l-2.23193,5.83545c-.16553.41846-.33838.72949-.51807.93408Z"/>
      <path class="cls-1" d="M161.56299,48.1709c-.18018.2041-.41113.30615-.69287.30615h-1.60498c-.31152,0-.4668-.13623-.4668-.40869,0-.10693.01953-.22803.05811-.36475.03906-.13574.09277-.2915.16064-.4668l2.88867-7.52783c.16504-.41797.33545-.72949.51074-.93359.1748-.2041.40332-.30615.68555-.30615h5.51465c.2627,0,.46191.05566.59814.16748s.27197.26025.4082.44531c.28223-.18506.53271-.3335.75146-.44531s.45459-.16748.70752-.16748h3.86621c.24316,0,.46436.05322.66357.16016.19922.10742.36963.24805.51074.42334.14111.1748.24805.37207.3208.59082.07324.21875.10986.43555.10986.64893,0,.25342-.03418.44287-.10254.56934l-2.43604,6.375c-.17529.44775-.3501.76611-.52539.95557-.1748.18994-.40381.28467-.68555.28467h-1.60498c-.31104,0-.4668-.12646-.4668-.37939,0-.2334.07764-.52002.2334-.86084l2.14453-5.60205v-.05811c0-.20459-.08008-.35498-.24072-.45264-.16016-.09668-.33789-.14551-.53223-.14551h-.91943c-.19434,0-.4082.05615-.6416.16748-.2334.11182-.42334.2749-.56885.48877l-2.14453,5.60205c-.17529.44775-.35059.76611-.52539.95557-.17529.18994-.40381.28467-.68555.28467h-1.60498c-.3208,0-.48145-.12646-.48145-.37939,0-.2334.07764-.52002.2334-.86084l2.14453-5.60205v-.05811c0-.20459-.08252-.35498-.24805-.45264-.16553-.09668-.34521-.14551-.53955-.14551h-1.59033c-.07812,0-.16309.0459-.25537.13867-.09229.09229-.1582.18701-.19678.28418l-2.23193,5.83545c-.16553.41846-.33838.72949-.51807.93408Z"/>
      <path class="cls-1" d="M186.38525,38.77539c.17529-.2041.40381-.30615.68604-.30615h1.58984c.31152,0,.46729.13623.46729.4082,0,.12646-.06836.40381-.20459.83154l-2.88867,7.52783c-.16553.41846-.33789.72949-.51758.93408-.18018.2041-.41113.30615-.69336.30615h-7.46924c-.25293,0-.47656-.05322-.6709-.16064-.19482-.10693-.36279-.24805-.50342-.42285-.14111-.17529-.24805-.36963-.32129-.5835-.07275-.21387-.10938-.43262-.10938-.65674,0-.25244.03418-.44238.10205-.56885l2.45117-6.37549c.16504-.41797.33545-.72949.51074-.93359.1748-.2041.40332-.30615.68555-.30615h1.59033c.31104,0,.4668.13623.4668.4082,0,.12646-.06836.40381-.20459.83154l-2.15869,5.60205v.05859c0,.2041.08008.35498.24072.45215.16016.09766.3374.146.53223.146h3.20947c.07764,0,.16309-.0459.25537-.13867.09229-.09229.1582-.18701.19678-.28418l2.24707-5.83594c.16504-.41797.33545-.72949.51025-.93359Z"/>
      <path class="cls-1" d="M189.98193,48.1709c-.18018.2041-.41113.30615-.69287.30615h-1.60498c-.31152,0-.4668-.13623-.4668-.40869,0-.10693.01953-.22803.05811-.36475.03906-.13574.09277-.2915.16064-.4668l2.88867-7.52783c.16504-.41797.33545-.72949.51074-.93359.1748-.2041.40332-.30615.68555-.30615h7.46973c.24268,0,.46436.05322.66357.16016.19922.10742.36963.24805.51074.42334.14062.1748.24805.37207.3208.59082s.10938.43555.10938.64893c0,.25342-.03418.44287-.10205.56934l-2.43652,6.375c-.16553.41846-.33789.72949-.51758.93408-.18018.2041-.41113.30615-.69336.30615h-1.5752c-.31152,0-.4668-.13623-.4668-.40869,0-.10693.01904-.22803.05811-.36475.03857-.13574.09229-.2915.16064-.4668l2.14453-5.60205v-.05811c0-.20459-.08057-.35498-.24072-.45264-.16064-.09668-.33838-.14551-.53271-.14551h-3.20947c-.07812,0-.16309.0459-.25537.13867-.09229.09229-.1582.18701-.19678.28418l-2.23193,5.83545c-.16553.41846-.33838.72949-.51807.93408Z"/>
      <path class="cls-1" d="M204.83301,41.29199c.00488-.02393.00732-.04102.00732-.05127,0-.1748-.05371-.26221-.16064-.26221h-1.95459c-.16553,0-.27979-.06592-.34277-.19727-.06348-.13135-.09521-.29395-.09521-.48877,0-.3501.06348-.66602.18994-.94824.01953-.04834.05078-.12109.09473-.21875.04395-.09717.09717-.19434.16064-.2915.06299-.09717.12891-.18262.19678-.25537.06787-.07324.13135-.10938.18994-.10938h8.69482c.07764,0,.1167.06787.1167.2041,0,.10693-.01953.23096-.05859.37207-.03857.14111-.06787.24072-.0874.29883-.06787.17529-.1582.35986-.27002.55469-.11182.19434-.23584.37207-.37207.53223-.13623.16064-.27686.29199-.42285.39404s-.29199.15332-.4375.15332h-1.95508c-.05859,0-.13623.04346-.2334.13135-.09717.0874-.17041.18457-.21875.2915l-1.59033,4.14355c-.00977.04834-.01709.08496-.02197.10938s-.00732.0415-.00732.05078c0,.17529.05371.2627.16064.2627h1.95508c.16504,0,.2793.06543.34277.19678.06299.13135.09473.29443.09473.48877,0,.3501-.06348.6665-.18945.94824-.02002.04883-.05127.12207-.09521.21875-.04346.09766-.09717.19482-.16016.29199-.06348.09717-.12939.18262-.19727.25537s-.13135.10938-.18945.10938h-8.69482c-.07812,0-.1167-.06787-.1167-.2041,0-.10693.01904-.23096.05811-.37207.03857-.14111.06787-.24072.0874-.29932.06787-.1748.1582-.35938.27002-.5542.11182-.19434.23584-.37207.37207-.53271.13623-.16016.27734-.2915.42285-.39355.146-.10205.29199-.15332.43799-.15332h1.95459c.04883,0,.12158-.03662.21924-.10938.09668-.07324.16992-.1582.21875-.25537l1.60449-4.20166c.00977-.04834.01709-.08496.02197-.10938Z"/>
      <path class="cls-1" d="M215.89844,41.40137c.00977-.04834.01709-.08496.02197-.10938.00488-.02393.00732-.04102.00732-.05127,0-.1748-.05371-.26221-.16064-.26221h-2.33398c-.16553,0-.27979-.06592-.34277-.19727-.06348-.13135-.09521-.29395-.09521-.48877,0-.15527.01221-.31348.03662-.47412.02441-.16016.07031-.32324.13867-.48877.01953-.04834.05322-.12109.10205-.21875.04883-.09717.10205-.19189.16064-.28418.05811-.09229.12402-.17529.19678-.24805.07324-.07324.13867-.10938.19727-.10938h9.45361c.07764,0,.1167.06787.1167.2041,0,.10693-.02002.23096-.05859.37207-.03906.14111-.06836.24072-.0874.29883-.06836.17529-.1582.35986-.27002.55469-.11182.19434-.23584.37207-.37207.53223-.13623.16064-.27734.29199-.42285.39404-.146.10205-.29199.15332-.43799.15332h-2.33398c-.05859,0-.13623.04346-.2334.13135-.09766.0874-.17041.18457-.21875.2915l-2.23242,5.83545c-.16553.41846-.33789.72949-.51758.93408-.18018.2041-.41113.30615-.69336.30615h-1.60449c-.31152,0-.4668-.13623-.4668-.40869,0-.10693.01904-.22803.05811-.36475.03906-.13574.09229-.2915.16064-.4668l2.23193-5.83545Z"/>
      <path class="cls-1" d="M227.56934,39.70898l-1.05029,2.72803v.05859c0,.2041.08057.35498.24072.45215.16064.09766.33789.146.53271.146h2.52393c.19434,0,.4082-.05566.6416-.16797.2334-.11133.42334-.27441.56934-.48877l1.05029-2.72803c.16504-.44727.33545-.76562.51074-.95557.1748-.18945.40332-.28418.68555-.28418h1.60449c.32129,0,.48145.13135.48145.39355,0,.18506-.07275.4668-.21875.84619l-1.34229,3.50146c-.0874.2334-.25488.49121-.50293.77344s-.53271.54199-.85352.78027c-.32129.23828-.65674.4375-1.00684.59814s-.67578.24072-.97754.24072h-1.09424c-.18457.03906-.33057.18018-.4375.42285l-.45215,1.21094c-.16553.41846-.33789.72949-.51807.93408-.18018.2041-.41064.30615-.69287.30615h-1.60498c-.31104,0-.4668-.13623-.4668-.40869,0-.10693.01953-.22803.05859-.36475.03857-.13574.09229-.2915.16064-.4668l.45215-1.21094c.00928-.04834.0166-.0874.02197-.1167.00439-.02881.00732-.04834.00732-.05811,0-.16553-.04883-.24805-.146-.24805h-1.06494c-.25342,0-.47705-.05322-.67139-.16064-.19434-.10693-.3623-.24805-.50342-.42285-.14111-.17529-.24756-.36963-.3208-.5835-.07275-.21387-.10938-.43262-.10938-.65674,0-.25244.03418-.44238.10205-.56885l1.34229-3.50146c.16504-.44727.33545-.76562.51074-.95557.1748-.18945.40332-.28418.68555-.28418h1.60498c.31104,0,.4668.12646.4668.37891,0,.19482-.07324.48145-.21924.86084Z"/>
    </g>
    <polygon class="cls-1" points="244.35938 43.17822 239.35938 43.17822 241.35938 38.17822 246.35938 38.17822 244.35938 43.17822"/>
    <polygon class="cls-1" points="247.35938 48.17822 242.35938 48.17822 244.35938 43.17822 249.35938 43.17822 247.35938 48.17822"/>
    <polygon class="cls-1" points="254.35938 43.17822 249.35938 43.17822 251.35938 38.17822 256.35938 38.17822 254.35938 43.17822"/>
    <polygon class="cls-1" points="257.35938 48.17822 252.35938 48.17822 254.35938 43.17822 259.35938 43.17822 257.35938 48.17822"/>
    <polygon class="cls-1" points="264.35938 43.17822 259.35938 43.17822 261.35938 38.17822 266.35938 38.17822 264.35938 43.17822"/>
    <polygon class="cls-1" points="267.35938 48.17822 262.35938 48.17822 264.35938 43.17822 269.35938 43.17822 267.35938 48.17822"/>
    <polygon class="cls-1" points="274.35938 43.17822 269.35938 43.17822 271.35938 38.17822 276.35938 38.17822 274.35938 43.17822"/>
    <polygon class="cls-1" points="277.35938 48.17822 272.35938 48.17822 274.35938 43.17822 279.35938 43.17822 277.35938 48.17822"/>
    <polygon class="cls-1" points="284.35938 43.17822 279.35938 43.17822 281.35938 38.17822 286.35938 38.17822 284.35938 43.17822"/>
    <polygon class="cls-1" points="287.35938 48.17822 282.35938 48.17822 284.35938 43.17822 289.35938 43.17822 287.35938 48.17822"/>
    <polygon class="cls-1" points="294.35938 43.17822 289.35938 43.17822 291.35938 38.17822 296.35938 38.17822 294.35938 43.17822"/>
    <polygon class="cls-1" points="297.35938 48.17822 292.35938 48.17822 294.35938 43.17822 299.35938 43.17822 297.35938 48.17822"/>
    <polygon class="cls-1" points="304.35938 43.17822 299.35938 43.17822 301.35938 38.17822 306.35938 38.17822 304.35938 43.17822"/>
  </g>
</svg>